PathFileType   4   (X/Y/Z)
DataRate	CameraRate	NumFrames	NumMarkers	Units	OrigDataRate	OrigDataStartFrame	OrigNumFrames
120.0	120.0	9	37	mm	120.0	1	116
Frame#	Time	midhip	hip_r	hip_l	knee_r	knee_l	ankle_r	ankle_l	midasis	asis_r	asis_l	psis_r	psis_l	epicondLat_r	epicondLat_l	epicondMed_r	epicondMed_l	malleolusLat_r	malleolusLat_l	malleolusMedv_r	malleolusMedv_l	neck	subclavicle_r	subclavicle_l	sternalnotch	xyphoidprocess	thighwand_r	thighwand_l	upperleg1_r	upperleg1_l	upperleg2_r	upperleg2_l	shankwand_r	shankwand_l	lowerleg1_r	lowerleg1_l	toe_r	toe_l
 	 	X1	Y1	Z1	X2	Y2	Z2	X3	Y3	Z3	X4	Y4	Z4	X5	Y5	Z5	X6	Y6	Z6	X7	Y7	Z7	X8	Y8	Z8	X9	Y9	Z9	X10	Y10	Z10	X11	Y11	Z11	X12	Y12	Z12	X13	Y13	Z13	X14	Y14	Z14	X15	Y15	Z15	X16	Y16	Z16	X17	Y17	Z17	X18	Y18	Z18	X19	Y19	Z19	X20	Y20	Z20	X21	Y21	Z21	X22	Y22	Z22	X23	Y23	Z23	X24	Y24	Z24	X25	Y25	Z25	X26	Y26	Z26	X27	Y27	Z27	X28	Y28	Z28	X29	Y29	Z29	X30	Y30	Z30	X31	Y31	Z31	X32	Y32	Z32	X33	Y33	Z33	X34	Y34	Z34	X35	Y35	Z35	X36	Y36	Z36	X37	Y37	Z37

	1	0.13333	560.522	805.583	-301.234	548.180	776.787	-230.159	536.763	796.436	-380.580	500.205	406.010	-207.197	682.180	430.878	-364.856	209.616	169.392	-206.948	678.382	68.240	-355.305	634.859	857.902	-299.994	639.741	842.938	-185.453	629.976	872.866	-414.535	443.996	918.889	-251.761	436.995	918.797	-306.216	505.020	408.962	-149.473	697.293	434.486	-420.736	515.722	404.695	-263.160	682.600	447.089	-303.189	199.434	181.935	-170.355	673.281	67.249	-394.966	224.009	165.301	-238.205	688.882	77.125	-329.523	502.617	1353.056	-289.992	631.947	1301.104	-249.413	623.298	1295.894	-355.817	624.528	1295.363	-301.665	668.113	1228.071	-305.763	688.395	527.116	-234.179	700.584	571.256	-510.138	629.897	586.412	-177.425	618.980	597.361	-464.704	608.597	500.556	-172.883	655.089	519.242	-445.563	254.012	242.083	-99.939	770.255	195.821	-331.571	261.980	243.545	-141.700	730.511	192.090	-346.567	213.942	65.529	-187.038	789.884	42.313	-374.294
	2	0.14167	570.015	806.836	-302.451	558.044	777.978	-231.559	546.100	797.785	-381.918	519.572	405.635	-208.229	687.014	430.944	-366.041	225.933	174.691	-209.068	678.936	68.203	-355.324	644.318	859.370	-301.574	649.603	844.278	-187.072	639.034	874.462	-416.075	453.420	919.712	-252.235	446.349	919.898	-306.633	524.432	408.749	-150.517	701.448	434.061	-422.130	535.565	403.854	-265.687	688.759	446.060	-305.537	216.216	186.913	-172.241	673.307	67.159	-394.912	240.549	169.987	-240.186	689.269	77.033	-329.495	512.752	1354.536	-291.616	641.777	1302.719	-250.922	633.354	1297.433	-357.368	634.372	1296.840	-302.971	678.076	1229.654	-307.158	704.541	530.493	-235.638	705.163	570.445	-512.230	644.271	588.494	-179.162	624.542	597.930	-465.156	625.292	502.144	-174.808	659.530	519.336	-447.089	271.721	244.734	-101.434	772.270	194.710	-333.285	280.803	246.552	-143.201	732.864	191.933	-347.845	225.804	69.928	-188.538	789.890	42.289	-374.570
	3	0.15000	579.069	807.916	-303.634	567.635	779.319	-232.643	555.175	799.052	-382.970	538.826	405.703	-209.226	691.390	430.996	-367.245	242.865	179.788	-211.642	679.638	68.128	-355.369	653.547	860.831	-302.963	659.229	845.778	-188.391	647.865	875.884	-417.535	462.679	920.707	-252.785	455.547	921.109	-307.146	543.865	408.930	-151.535	705.068	433.653	-423.546	556.318	402.689	-267.680	695.836	445.616	-307.881	233.560	191.580	-174.569	673.278	67.042	-394.845	257.600	174.959	-242.818	689.618	76.962	-329.683	522.430	1356.399	-293.172	651.760	1304.576	-252.019	643.458	1299.003	-358.722	644.214	1298.379	-304.216	688.137	1231.368	-308.150	720.444	534.277	-237.383	709.191	569.615	-514.299	658.849	590.701	-181.158	629.814	598.555	-465.874	642.874	503.991	-176.882	664.346	519.318	-448.639	289.869	247.144	-103.252	774.241	193.650	-335.502	299.553	249.424	-144.958	735.912	191.579	-349.855	239.385	74.293	-190.132	789.799	42.306	-374.930
	4	0.15833	588.066	809.210	-304.655	576.964	780.810	-233.454	564.024	800.267	-383.776	557.953	406.183	-210.169	695.324	431.038	-368.442	260.384	184.533	-214.593	680.469	68.032	-355.473	662.572	862.292	-304.176	668.627	847.425	-189.437	656.517	877.160	-418.916	471.809	921.888	-253.417	464.613	922.444	-307.765	563.292	409.496	-152.510	708.232	433.282	-424.943	577.352	402.230	-270.460	702.180	444.692	-310.387	251.400	195.850	-177.294	673.226	66.924	-394.796	275.158	179.541	-245.818	689.818	76.984	-329.991	531.726	1358.398	-294.794	661.623	1306.304	-253.083	653.100	1300.680	-359.968	654.041	1299.938	-305.414	697.817	1233.029	-309.349	736.084	538.409	-239.367	712.849	568.821	-516.270	673.652	592.969	-183.073	634.709	598.684	-466.688	660.878	505.984	-179.422	668.751	519.135	-450.334	308.343	249.370	-105.385	776.154	192.625	-338.105	318.454	252.046	-147.167	737.842	190.224	-351.361	254.763	78.451	-191.827	789.653	42.328	-375.339
	5	0.16667	596.341	809.955	-305.525	586.054	782.446	-234.048	572.699	801.456	-384.391	576.960	407.034	-211.045	698.862	431.070	-369.609	278.485	188.778	-217.825	681.375	67.935	-355.650	671.431	863.763	-305.240	677.815	849.208	-190.257	665.046	878.318	-420.224	480.841	923.257	-254.120	473.568	923.898	-308.484	582.684	410.426	-153.428	711.030	432.953	-426.287	601.014	401.103	-272.546	705.271	444.573	-311.356	269.699	199.629	-180.340	673.166	66.826	-394.783	293.264	183.461	-249.026	689.747	77.293	-330.365	541.679	1360.091	-296.023	671.401	1307.806	-254.160	662.996	1302.492	-360.940	663.838	1301.491	-306.535	707.590	1234.656	-310.525	751.466	542.832	-241.492	716.279	568.083	-518.088	688.346	595.961	-184.829	639.125	599.132	-467.284	680.370	508.383	-181.864	671.520	519.515	-451.191	327.066	251.447	-107.802	777.979	191.640	-340.933	337.575	254.336	-149.741	739.087	189.113	-352.899	271.971	82.264	-193.648	789.499	42.332	-375.760
	6	0.17500	604.532	810.844	-306.514	594.950	784.214	-234.486	581.263	802.637	-384.873	595.878	408.211	-211.857	702.080	431.088	-370.716	297.165	192.387	-221.233	682.277	67.853	-355.895	680.169	865.252	-306.184	686.821	851.114	-190.903	673.516	879.390	-421.464	489.798	924.800	-254.879	482.428	925.451	-309.284	602.023	411.691	-154.289	713.556	432.654	-427.547	613.716	404.486	-272.268	707.628	445.757	-311.508	288.442	202.826	-183.618	673.097	66.766	-394.812	312.082	186.853	-252.486	689.478	77.764	-330.797	551.849	1361.665	-297.240	681.213	1309.137	-255.502	672.970	1303.926	-361.541	673.573	1303.007	-307.531	717.328	1235.950	-311.485	766.611	547.494	-243.624	719.586	567.405	-519.725	702.876	599.621	-186.568	643.255	600.244	-468.314	694.187	511.733	-182.787	674.211	520.039	-451.735	346.007	253.373	-110.447	779.673	190.702	-343.783	356.652	256.321	-152.489	740.576	188.920	-355.439	290.963	85.609	-195.641	789.374	42.306	-376.155
	7	0.18333	613.745	813.012	-307.613	603.684	786.090	-234.802	589.731	803.820	-385.247	614.712	409.672	-212.610	705.067	431.082	-371.735	316.411	195.256	-224.710	683.088	67.795	-356.178	688.803	866.761	-307.029	695.676	853.123	-191.420	681.929	880.399	-422.639	498.697	926.487	-255.665	491.202	927.076	-310.136	621.261	413.255	-155.092	715.903	432.370	-428.699	629.833	406.399	-272.539	710.830	446.805	-312.039	307.618	205.363	-187.020	673.020	66.747	-394.876	331.382	190.182	-256.254	689.651	77.868	-331.123	561.591	1363.475	-298.320	690.768	1310.665	-256.731	682.448	1304.904	-362.733	683.212	1304.472	-308.401	726.578	1237.038	-312.330	781.545	552.364	-245.624	722.839	566.782	-521.171	717.201	603.104	-188.247	647.743	601.434	-469.640	709.595	514.834	-184.045	677.639	520.212	-452.526	365.157	255.121	-113.253	781.202	189.825	-346.429	375.806	258.550	-155.453	741.674	188.893	-358.009	311.607	88.401	-197.855	789.302	42.248	-376.496
	8	0.19167	622.763	815.082	-308.497	612.288	788.039	-235.045	598.120	805.010	-385.558	633.473	411.373	-213.325	707.912	431.056	-372.649	336.203	197.309	-228.146	683.726	67.767	-356.459	697.350	868.285	-307.811	704.406	855.200	-191.861	690.295	881.369	-423.761	507.546	928.272	-256.462	499.902	928.746	-311.005	640.358	415.074	-155.854	718.154	432.093	-429.728	647.709	407.337	-272.146	713.455	446.809	-312.809	327.216	207.179	-190.439	672.934	66.769	-394.962	351.005	193.305	-260.161	689.941	77.822	-331.320	571.337	1365.510	-298.678	700.258	1312.522	-257.375	692.111	1306.044	-363.829	692.762	1305.903	-309.158	735.952	1238.404	-312.638	796.292	557.436	-247.371	726.077	566.213	-522.433	731.557	606.370	-189.940	652.133	602.058	-470.539	725.949	518.129	-185.132	680.713	520.310	-453.326	384.517	256.648	-116.154	782.539	189.013	-348.644	394.894	260.809	-158.530	742.190	188.380	-360.291	333.710	90.594	-200.327	789.296	42.167	-376.761
	9	0.20000	631.271	816.681	-309.308	620.793	790.019	-235.270	606.447	806.209	-385.852	652.143	413.288	-214.038	710.693	431.024	-373.442	356.512	198.504	-231.438	684.123	67.767	-356.694	705.831	869.807	-308.566	713.040	857.298	-192.283	698.622	882.316	-424.848	516.347	930.105	-257.251	508.541	930.440	-311.855	659.253	417.117	-156.603	720.376	431.823	-430.622	666.292	408.677	-272.294	716.865	445.298	-314.098	347.226	208.233	-193.766	672.838	66.824	-395.058	370.997	195.242	-263.912	690.141	77.959	-331.325	580.781	1367.340	-298.993	709.572	1314.069	-257.619	702.067	1307.483	-364.202	702.229	1307.341	-309.834	745.507	1239.843	-312.626	810.864	562.727	-248.784	729.318	565.696	-523.526	745.181	610.109	-191.191	656.628	602.333	-470.337	742.014	521.894	-186.096	683.833	520.195	-453.891	404.079	257.896	-119.077	783.671	188.276	-350.238	413.897	262.350	-161.826	742.979	187.483	-361.771	357.054	92.176	-203.066	789.356	42.079	-376.944
